<svg width="31" height="30" viewBox="0 0 31 30" fill="none" xmlns="http://www.w3.org/2000/svg">
<path d="M0 15.2984C0 22.272 4.61756 28.1525 10.9282 29.9935L12.9584 21.2298C11.9696 20.68 11.2096 19.7607 10.8611 18.6554H8.42173C8.0684 19.5561 7.20084 20.194 6.1837 20.194C4.85285 20.194 3.77345 19.1033 3.77345 17.7587C3.77345 16.4133 4.85285 15.3226 6.1837 15.3226C7.2251 15.3226 8.10964 15.9913 8.44599 16.9267L10.6695 16.8742C10.7244 16.2743 10.8942 15.7099 11.1586 15.2013L9.36368 13.387C9.06048 13.5252 8.72574 13.6045 8.3716 13.6045C7.04075 13.6045 5.96216 12.5146 5.96216 11.1691C5.96216 9.82293 7.04075 8.73221 8.3716 8.73221C9.70165 8.73221 10.781 9.82293 10.781 11.1691C10.781 11.5217 10.7059 11.8564 10.5716 12.1588L12.2809 13.8082C12.8372 13.3465 13.5074 13.0191 14.2424 12.8744V10.3016C13.3182 9.96038 12.6657 9.06695 12.6657 8.01504C12.6657 6.66963 13.7451 5.57891 15.0752 5.57891C16.406 5.57891 17.4846 6.66963 17.4846 8.01504C17.4846 9.06695 16.8847 9.95634 15.9605 10.2967L15.9516 10.3016L16.0099 12.8857C16.7424 13.0393 17.407 13.3748 17.9576 13.8438L19.5941 12.1895C19.4518 11.8782 19.3701 11.5338 19.3701 11.1691C19.3701 9.82293 20.4487 8.73221 21.7796 8.73221C23.1104 8.73221 24.189 9.82293 24.189 11.1691C24.189 12.5146 23.1104 13.6045 21.7796 13.6045C21.4376 13.6045 21.1125 13.5317 20.8182 13.4023L19.0669 15.2571C19.3135 15.7471 19.4728 16.288 19.5262 16.8604H21.7747C22.1289 15.9597 22.9964 15.3226 24.0144 15.3226C25.3452 15.3226 26.4238 16.4133 26.4238 17.7587C26.4238 19.1033 25.3452 20.194 24.0144 20.194C22.9746 20.194 22.0909 19.527 21.7529 18.594L19.337 18.6514C18.9893 19.7582 18.2301 20.68 17.2396 21.2298L19.3087 30C25.6315 28.1662 30.2603 22.2809 30.2603 15.2984C30.2603 6.84913 23.4864 -7.54992e-07 15.1302 -7.54992e-07C6.77474 -7.54992e-07 0 6.84913 0 15.2984Z" fill="url(#paint0_linear)"/>
<defs>
<linearGradient id="paint0_linear" x1="9.85608e-05" y1="15.0001" x2="30.2602" y2="15.0001" gradientUnits="userSpaceOnUse">
<stop stop-color="#E81C62"/>
<stop offset="0.014552" stop-color="#E81C62"/>
<stop offset="0.0409091" stop-color="#E81C62"/>
<stop offset="0.382073" stop-color="#E81C62"/>
<stop offset="1" stop-color="#EF484E"/>
</linearGradient>
</defs>
</svg>
