<svg width="140" height="28" viewBox="0 0 140 28" fill="none" xmlns="http://www.w3.org/2000/svg">
<path d="M46.9518 13.4854H41.0193V15.0304H45.4646C45.3393 16.2882 44.8721 17.2767 44.0621 17.9952C43.2536 18.7137 42.2388 19.0729 41.0193 19.0729C39.6858 19.0729 38.5578 18.5877 37.6346 17.6172C36.7226 16.6362 36.2666 15.4077 36.2666 13.9347C36.2666 12.4609 36.7226 11.2339 37.6346 10.2514C38.5578 9.28167 39.6858 8.79642 41.0193 8.79642C41.7033 8.79642 42.3446 8.93142 42.9431 9.20067C43.5416 9.46992 44.0283 9.84492 44.4041 10.3234L45.5328 9.13767C45.0198 8.52642 44.3643 8.05392 43.5663 7.71867C42.7683 7.38267 41.9193 7.21542 41.0193 7.21542C39.2418 7.21542 37.7373 7.86192 36.5058 9.15567C35.2751 10.4494 34.6593 12.0424 34.6593 13.9347C34.6593 15.8269 35.2751 17.4199 36.5058 18.7137C37.7373 20.0074 39.2418 20.6539 41.0193 20.6539C42.8771 20.6539 44.3756 20.0187 45.5156 18.7497C46.5303 17.6832 47.0373 16.2522 47.0373 14.4559C47.0373 14.1447 47.0088 13.8207 46.9518 13.4854ZM54.6198 20.0254C55.2865 19.6062 55.8078 19.0249 56.1835 18.2824L54.7818 17.5632C54.2118 18.6177 53.4258 19.1449 52.4223 19.1449C51.6933 19.1449 51.0663 18.8817 50.5421 18.3544C50.0178 17.8272 49.7441 17.1327 49.7216 16.2702H56.3035L56.3208 16.0909C56.3208 14.5692 55.9533 13.3864 55.2183 12.5419C54.4833 11.6982 53.4941 11.2759 52.2513 11.2759C51.0431 11.2759 50.0516 11.7222 49.2768 12.6139C48.5013 13.5064 48.1143 14.6232 48.1143 15.9649C48.1143 17.3187 48.5133 18.4377 49.3113 19.3242C50.1086 20.2107 51.1233 20.6539 52.354 20.6539C53.1978 20.6539 53.953 20.4439 54.6198 20.0254ZM50.6875 13.3602C51.115 12.9769 51.6243 12.7849 52.2175 12.7849C52.9353 12.7849 53.5083 12.9859 53.9358 13.3864C54.3633 13.7884 54.5995 14.2939 54.6453 14.9044H49.8416C49.9781 14.2579 50.26 13.7434 50.6875 13.3602ZM63.9535 19.9804C64.609 19.5312 65.0905 18.9109 65.3988 18.1204L63.997 17.4919C63.529 18.5937 62.7198 19.1449 61.5693 19.1449C60.8508 19.1449 60.2298 18.8397 59.7055 18.2284C59.1925 17.6172 58.936 16.8627 58.936 15.9649C58.936 15.0664 59.1925 14.3119 59.7055 13.7007C60.2298 13.0902 60.8508 12.7849 61.5693 12.7849C62.686 12.7849 63.4668 13.3354 63.9115 14.4379L65.347 13.8087C65.0283 13.0182 64.549 12.3987 63.9115 11.9494C63.2725 11.5002 62.5263 11.2759 61.672 11.2759C60.4293 11.2759 59.398 11.7192 58.5768 12.6049C57.7683 13.4914 57.3633 14.6112 57.3633 15.9649C57.3633 17.2947 57.7683 18.4144 58.5768 19.3242C59.398 20.2107 60.4293 20.6539 61.672 20.6539C62.5375 20.6539 63.2988 20.4289 63.9535 19.9804ZM74.1348 20.2947L70.7155 15.0484L73.9811 11.6352V11.5632H71.9635L68.3388 15.4257V7.50267H66.766V20.3659H68.3388V17.5452L69.6213 16.2162L72.2373 20.3659H74.1348V20.2947ZM75.502 19.3242C76.3226 20.2107 77.3546 20.6539 78.5965 20.6539C79.8385 20.6539 80.8646 20.2107 81.6738 19.3242C82.4943 18.4504 82.9045 17.3299 82.9045 15.9649C82.9045 14.6112 82.4943 13.4914 81.6738 12.6049C80.8646 11.7192 79.8385 11.2759 78.5965 11.2759C77.3546 11.2759 76.3226 11.7192 75.502 12.6049C74.6928 13.4914 74.2885 14.6112 74.2885 15.9649C74.2885 17.3187 74.6928 18.4377 75.502 19.3242ZM76.648 13.6827C77.1836 13.0842 77.8331 12.7849 78.5965 12.7849C79.36 12.7849 80.0095 13.0842 80.5458 13.6827C81.0701 14.2699 81.3318 15.0304 81.3318 15.9649C81.3318 16.9114 81.0701 17.6779 80.5458 18.2644C80.0208 18.8509 79.3713 19.1449 78.5965 19.1449C77.821 19.1449 77.1715 18.8509 76.648 18.2644C76.1238 17.6779 75.8613 16.9114 75.8613 15.9649C75.8613 15.0304 76.1238 14.2699 76.648 13.6827ZM92.1198 20.3659C93.9888 20.3659 95.4903 19.7764 96.6243 18.5967C97.7583 17.4169 98.3253 15.8629 98.3253 13.9347C98.3253 12.0184 97.7583 10.4674 96.6243 9.28167C95.4903 8.09592 93.9888 7.50267 92.1198 7.50267H88.375V20.3659H92.1198ZM92.1198 9.08367C93.544 9.08367 94.6668 9.51492 95.4873 10.3774C96.3078 11.2399 96.718 12.4257 96.718 13.9347C96.718 15.4557 96.3078 16.6444 95.4873 17.5009C94.6668 18.3574 93.544 18.7857 92.1198 18.7857H89.9485V9.08367H92.1198ZM101.625 7.70067C101.409 7.47267 101.146 7.35867 100.839 7.35867C100.531 7.35867 100.269 7.47267 100.052 7.70067C99.8358 7.92792 99.727 8.20317 99.727 8.52642C99.727 8.85042 99.8358 9.12567 100.052 9.35367C100.269 9.58092 100.531 9.69417 100.839 9.69417C101.146 9.69417 101.409 9.58092 101.625 9.35367C101.841 9.12567 101.95 8.85042 101.95 8.52642C101.95 8.20317 101.841 7.92792 101.625 7.70067ZM100.052 20.3659H101.625V11.5624H100.052V20.3659ZM105.455 18.2464C104.942 17.6599 104.685 16.8987 104.685 15.9649C104.685 15.0424 104.942 14.2819 105.455 13.6827C105.968 13.0842 106.6 12.7849 107.352 12.7849C108.116 12.7849 108.748 13.0842 109.25 13.6827C109.763 14.2819 110.019 15.0424 110.019 15.9649C110.019 16.9114 109.763 17.6779 109.25 18.2644C108.76 18.8509 108.127 19.1449 107.352 19.1449C106.6 19.1449 105.968 18.8457 105.455 18.2464ZM110.379 23.3127C111.142 22.5102 111.524 21.4024 111.524 19.9894V11.5632H110.019V12.7849H109.951C109.655 12.3177 109.253 11.9494 108.746 11.6802C108.239 11.4102 107.688 11.2759 107.096 11.2759C106.002 11.2759 105.062 11.7312 104.275 12.6409C103.5 13.5514 103.113 14.6592 103.113 15.9649C103.113 17.2699 103.5 18.3837 104.275 19.3062C105.062 20.2047 106.002 20.6539 107.096 20.6539C107.688 20.6539 108.239 20.5189 108.746 20.2497C109.253 19.9804 109.655 19.6122 109.951 19.1449H110.019V19.9894C110.019 20.9352 109.78 21.6777 109.301 22.2169C108.822 22.7562 108.156 23.0254 107.301 23.0254C106.743 23.0254 106.252 22.8694 105.831 22.5582C105.409 22.2469 105.113 21.8337 104.942 21.3184L103.455 21.9649C103.58 22.3482 103.762 22.6954 104.001 23.0074C104.241 23.3187 104.529 23.5879 104.865 23.8159C105.201 24.0432 105.574 24.2202 105.985 24.3454C106.395 24.4714 106.833 24.5344 107.301 24.5344C108.578 24.5344 109.603 24.1272 110.379 23.3127ZM115.148 7.70067C114.932 7.47267 114.669 7.35867 114.362 7.35867C114.054 7.35867 113.792 7.47267 113.575 7.70067C113.358 7.92792 113.25 8.20317 113.25 8.52642C113.25 8.85042 113.358 9.12567 113.575 9.35367C113.792 9.58092 114.054 9.69417 114.362 9.69417C114.669 9.69417 114.932 9.58092 115.148 9.35367C115.365 9.12567 115.473 8.85042 115.473 8.52642C115.473 8.20317 115.365 7.92792 115.148 7.70067ZM113.575 20.3659H115.148V11.5624H113.575V20.3659ZM121.867 20.2767L121.371 18.8037C121.269 18.8509 121.158 18.8907 121.038 18.9199C120.918 18.9499 120.795 18.9649 120.67 18.9649C120.396 18.9649 120.151 18.8599 119.935 18.6507C119.718 18.4414 119.61 18.0432 119.61 17.4559V13.0722H121.662V11.5632H119.61V8.86842H118.038V11.5632H116.567V13.0722H118.038V17.9952C118.048 18.7857 118.28 19.4022 118.73 19.8454C119.18 20.2887 119.747 20.5099 120.431 20.5099C120.978 20.5099 121.457 20.4319 121.867 20.2767ZM124.782 16.4674C125.209 16.1449 125.742 15.9829 126.38 15.9829C127.258 15.9829 127.942 16.1862 128.432 16.5934C128.432 17.2879 128.172 17.8932 127.654 18.4084C127.135 18.9229 126.546 19.1802 125.884 19.1802C125.417 19.1802 125.01 19.0369 124.662 18.7497C124.314 18.4624 124.14 18.1024 124.14 17.6712C124.14 17.1927 124.355 16.7914 124.782 16.4674ZM122.79 13.0002L124.175 13.9167C124.688 13.1382 125.383 12.7489 126.261 12.7489C126.842 12.7489 127.349 12.9499 127.782 13.3512C128.215 13.7524 128.432 14.2399 128.432 14.8144V15.1924C127.827 14.8324 127.059 14.6532 126.123 14.6532C125.029 14.6532 124.155 14.9224 123.5 15.4617C122.844 16.0009 122.517 16.7254 122.517 17.6352C122.517 18.4977 122.827 19.2162 123.448 19.7914C124.069 20.3659 124.842 20.6539 125.765 20.6539C126.848 20.6539 127.714 20.1507 128.364 19.1449H128.432V20.3659H129.936V14.9404C129.936 13.8027 129.6 12.9079 128.928 12.2547C128.255 11.6022 127.338 11.2759 126.175 11.2759C124.682 11.2759 123.554 11.8504 122.79 13.0002ZM131.715 20.3659H133.287V7.50267H131.715V20.3659Z" fill="white"/>
<path d="M139.6 5.34274L138.703 6.99349H138.688L137.791 5.34274H137.459V8.05399H137.791V6.44449L137.776 5.98999H137.791L138.598 7.47799H138.793L139.6 5.98999H139.614L139.6 6.44449V8.05399H139.931V5.34274H139.6ZM135.34 5.34274V5.67574H136.061V8.05399H136.393V5.67574H137.113V5.34274H135.34Z" fill="white"/>
<path d="M0.806274 14.285C0.806274 20.7537 5.08952 26.2085 10.9433 27.9162L12.8265 19.787C11.9093 19.277 11.2043 18.4242 10.881 17.399H8.61827C8.29052 18.2345 7.48577 18.8262 6.54227 18.8262C5.30777 18.8262 4.30652 17.8145 4.30652 16.5672C4.30652 15.3192 5.30777 14.3075 6.54227 14.3075C7.50827 14.3075 8.32877 14.9277 8.64077 15.7955L10.7033 15.7467C10.7543 15.1902 10.9118 14.6667 11.157 14.195L9.49202 12.512C9.21077 12.6402 8.90027 12.7137 8.57177 12.7137C7.33727 12.7137 6.33677 11.7027 6.33677 10.4547C6.33677 9.20599 7.33727 8.19424 8.57177 8.19424C9.80552 8.19424 10.8068 9.20599 10.8068 10.4547C10.8068 10.7817 10.737 11.0922 10.6125 11.3727L12.198 12.9027C12.714 12.4745 13.3358 12.1707 14.0175 12.0365V9.64999C13.1603 9.33349 12.555 8.50474 12.555 7.52899C12.555 6.28099 13.5563 5.26924 14.79 5.26924C16.0245 5.26924 17.025 6.28099 17.025 7.52899C17.025 8.50474 16.4685 9.32974 15.6113 9.64549L15.603 9.64999L15.657 12.047C16.3365 12.1895 16.953 12.5007 17.4638 12.9357L18.9818 11.4012C18.8498 11.1125 18.774 10.793 18.774 10.4547C18.774 9.20599 19.7745 8.19424 21.009 8.19424C22.2435 8.19424 23.244 9.20599 23.244 10.4547C23.244 11.7027 22.2435 12.7137 21.009 12.7137C20.6918 12.7137 20.3903 12.6462 20.1173 12.5262L18.4928 14.2467C18.7215 14.7012 18.8693 15.203 18.9188 15.734H21.0045C21.333 14.8985 22.1378 14.3075 23.082 14.3075C24.3165 14.3075 25.317 15.3192 25.317 16.5672C25.317 17.8145 24.3165 18.8262 23.082 18.8262C22.1175 18.8262 21.2978 18.2075 20.9843 17.342L18.7433 17.3952C18.4208 18.422 17.7165 19.277 16.7978 19.787L18.717 27.9222C24.582 26.2212 28.8758 20.762 28.8758 14.285C28.8758 6.44749 22.5923 0.0942399 14.841 0.0942399C7.09052 0.0942399 0.806274 6.44749 0.806274 14.285Z" fill="url(#paint0_linear)"/>
<defs>
<linearGradient id="paint0_linear" x1="0.806366" y1="14.0084" x2="28.8756" y2="14.0084" gradientUnits="userSpaceOnUse">
<stop stop-color="#E81C62"/>
<stop offset="0.014552" stop-color="#E81C62"/>
<stop offset="0.0409091" stop-color="#E81C62"/>
<stop offset="0.382073" stop-color="#E81C62"/>
<stop offset="1" stop-color="#EF484E"/>
</linearGradient>
</defs>
</svg>
