<svg width="232" height="232" viewBox="0 0 232 232" fill="none" xmlns="http://www.w3.org/2000/svg">
<path d="M8 0H0V8H8V0Z" fill="white"/>
<path d="M8 8H0V16H8V8Z" fill="white"/>
<path d="M8 16H0V24H8V16Z" fill="white"/>
<path d="M8 24H0V32H8V24Z" fill="white"/>
<path d="M8 32H0V40H8V32Z" fill="white"/>
<path d="M8 40H0V48H8V40Z" fill="white"/>
<path d="M8 48H0V56H8V48Z" fill="white"/>
<path d="M8 64H0V72H8V64Z" fill="white"/>
<path d="M8 72H0V80H8V72Z" fill="white"/>
<path d="M8 96H0V104H8V96Z" fill="white"/>
<path d="M8 104H0V112H8V104Z" fill="white"/>
<path d="M8 112H0V120H8V112Z" fill="white"/>
<path d="M8 128H0V136H8V128Z" fill="white"/>
<path d="M8 136H0V144H8V136Z" fill="white"/>
<path d="M8 152H0V160H8V152Z" fill="white"/>
<path d="M8 176H0V184H8V176Z" fill="white"/>
<path d="M8 184H0V192H8V184Z" fill="white"/>
<path d="M8 192H0V200H8V192Z" fill="white"/>
<path d="M8 200H0V208H8V200Z" fill="white"/>
<path d="M8 208H0V216H8V208Z" fill="white"/>
<path d="M8 216H0V224H8V216Z" fill="white"/>
<path d="M8 224H0V232H8V224Z" fill="white"/>
<path d="M16 0H8V8H16V0Z" fill="white"/>
<path d="M16 48H8V56H16V48Z" fill="white"/>
<path d="M16 64H8V72H16V64Z" fill="white"/>
<path d="M16 72H8V80H16V72Z" fill="white"/>
<path d="M16 96H8V104H16V96Z" fill="white"/>
<path d="M16 104H8V112H16V104Z" fill="white"/>
<path d="M16 112H8V120H16V112Z" fill="white"/>
<path d="M16 128H8V136H16V128Z" fill="white"/>
<path d="M16 136H8V144H16V136Z" fill="white"/>
<path d="M16 152H8V160H16V152Z" fill="white"/>
<path d="M16 176H8V184H16V176Z" fill="white"/>
<path d="M16 224H8V232H16V224Z" fill="white"/>
<path d="M24 0H16V8H24V0Z" fill="white"/>
<path d="M24 16H16V24H24V16Z" fill="white"/>
<path d="M24 24H16V32H24V24Z" fill="white"/>
<path d="M24 32H16V40H24V32Z" fill="white"/>
<path d="M24 48H16V56H24V48Z" fill="white"/>
<path d="M24 64H16V72H24V64Z" fill="white"/>
<path d="M24 88H16V96H24V88Z" fill="white"/>
<path d="M24 96H16V104H24V96Z" fill="white"/>
<path d="M24 112H16V120H24V112Z" fill="white"/>
<path d="M24 128H16V136H24V128Z" fill="white"/>
<path d="M24 144H16V152H24V144Z" fill="white"/>
<path d="M24 176H16V184H24V176Z" fill="white"/>
<path d="M24 192H16V200H24V192Z" fill="white"/>
<path d="M24 200H16V208H24V200Z" fill="white"/>
<path d="M24 208H16V216H24V208Z" fill="white"/>
<path d="M24 224H16V232H24V224Z" fill="white"/>
<path d="M32 0H24V8H32V0Z" fill="white"/>
<path d="M32 16H24V24H32V16Z" fill="white"/>
<path d="M32 24H24V32H32V24Z" fill="white"/>
<path d="M32 32H24V40H32V32Z" fill="white"/>
<path d="M32 48H24V56H32V48Z" fill="white"/>
<path d="M32 72H24V80H32V72Z" fill="white"/>
<path d="M32 88H24V96H32V88Z" fill="white"/>
<path d="M32 96H24V104H32V96Z" fill="white"/>
<path d="M32 104H24V112H32V104Z" fill="white"/>
<path d="M32 112H24V120H32V112Z" fill="white"/>
<path d="M32 136H24V144H32V136Z" fill="white"/>
<path d="M32 176H24V184H32V176Z" fill="white"/>
<path d="M32 192H24V200H32V192Z" fill="white"/>
<path d="M32 200H24V208H32V200Z" fill="white"/>
<path d="M32 208H24V216H32V208Z" fill="white"/>
<path d="M32 224H24V232H32V224Z" fill="white"/>
<path d="M40 0H32V8H40V0Z" fill="white"/>
<path d="M40 16H32V24H40V16Z" fill="white"/>
<path d="M40 24H32V32H40V24Z" fill="white"/>
<path d="M40 32H32V40H40V32Z" fill="white"/>
<path d="M40 48H32V56H40V48Z" fill="white"/>
<path d="M40 80H32V88H40V80Z" fill="white"/>
<path d="M40 88H32V96H40V88Z" fill="white"/>
<path d="M40 96H32V104H40V96Z" fill="white"/>
<path d="M40 104H32V112H40V104Z" fill="white"/>
<path d="M40 120H32V128H40V120Z" fill="white"/>
<path d="M40 136H32V144H40V136Z" fill="white"/>
<path d="M40 144H32V152H40V144Z" fill="white"/>
<path d="M40 152H32V160H40V152Z" fill="white"/>
<path d="M40 160H32V168H40V160Z" fill="white"/>
<path d="M40 176H32V184H40V176Z" fill="white"/>
<path d="M40 192H32V200H40V192Z" fill="white"/>
<path d="M40 200H32V208H40V200Z" fill="white"/>
<path d="M40 208H32V216H40V208Z" fill="white"/>
<path d="M40 224H32V232H40V224Z" fill="white"/>
<path d="M48 0H40V8H48V0Z" fill="white"/>
<path d="M48 48H40V56H48V48Z" fill="white"/>
<path d="M48 64H40V72H48V64Z" fill="white"/>
<path d="M48 72H40V80H48V72Z" fill="white"/>
<path d="M48 96H40V104H48V96Z" fill="white"/>
<path d="M48 112H40V120H48V112Z" fill="white"/>
<path d="M48 120H40V128H48V120Z" fill="white"/>
<path d="M48 128H40V136H48V128Z" fill="white"/>
<path d="M48 136H40V144H48V136Z" fill="white"/>
<path d="M48 152H40V160H48V152Z" fill="white"/>
<path d="M48 160H40V168H48V160Z" fill="white"/>
<path d="M48 176H40V184H48V176Z" fill="white"/>
<path d="M48 224H40V232H48V224Z" fill="white"/>
<path d="M56 0H48V8H56V0Z" fill="white"/>
<path d="M56 8H48V16H56V8Z" fill="white"/>
<path d="M56 16H48V24H56V16Z" fill="white"/>
<path d="M56 24H48V32H56V24Z" fill="white"/>
<path d="M56 32H48V40H56V32Z" fill="white"/>
<path d="M56 40H48V48H56V40Z" fill="white"/>
<path d="M56 48H48V56H56V48Z" fill="white"/>
<path d="M56 64H48V72H56V64Z" fill="white"/>
<path d="M56 80H48V88H56V80Z" fill="white"/>
<path d="M56 96H48V104H56V96Z" fill="white"/>
<path d="M56 112H48V120H56V112Z" fill="white"/>
<path d="M56 128H48V136H56V128Z" fill="white"/>
<path d="M56 144H48V152H56V144Z" fill="white"/>
<path d="M56 160H48V168H56V160Z" fill="white"/>
<path d="M56 176H48V184H56V176Z" fill="white"/>
<path d="M56 184H48V192H56V184Z" fill="white"/>
<path d="M56 192H48V200H56V192Z" fill="white"/>
<path d="M56 200H48V208H56V200Z" fill="white"/>
<path d="M56 208H48V216H56V208Z" fill="white"/>
<path d="M56 216H48V224H56V216Z" fill="white"/>
<path d="M56 224H48V232H56V224Z" fill="white"/>
<path d="M64 88H56V96H64V88Z" fill="white"/>
<path d="M64 96H56V104H64V96Z" fill="white"/>
<path d="M64 104H56V112H64V104Z" fill="white"/>
<path d="M64 112H56V120H64V112Z" fill="white"/>
<path d="M64 144H56V152H64V144Z" fill="white"/>
<path d="M64 160H56V168H64V160Z" fill="white"/>
<path d="M72 0H64V8H72V0Z" fill="white"/>
<path d="M72 8H64V16H72V8Z" fill="white"/>
<path d="M72 32H64V40H72V32Z" fill="white"/>
<path d="M72 40H64V48H72V40Z" fill="white"/>
<path d="M72 48H64V56H72V48Z" fill="white"/>
<path d="M72 56H64V64H72V56Z" fill="white"/>
<path d="M72 64H64V72H72V64Z" fill="white"/>
<path d="M72 104H64V112H72V104Z" fill="white"/>
<path d="M72 128H64V136H72V128Z" fill="white"/>
<path d="M72 144H64V152H72V144Z" fill="white"/>
<path d="M72 168H64V176H72V168Z" fill="white"/>
<path d="M72 184H64V192H72V184Z" fill="white"/>
<path d="M72 208H64V216H72V208Z" fill="white"/>
<path d="M72 216H64V224H72V216Z" fill="white"/>
<path d="M72 224H64V232H72V224Z" fill="white"/>
<path d="M80 0H72V8H80V0Z" fill="white"/>
<path d="M80 16H72V24H80V16Z" fill="white"/>
<path d="M80 40H72V48H80V40Z" fill="white"/>
<path d="M80 56H72V64H80V56Z" fill="white"/>
<path d="M80 64H72V72H80V64Z" fill="white"/>
<path d="M80 80H72V88H80V80Z" fill="white"/>
<path d="M80 96H72V104H80V96Z" fill="white"/>
<path d="M80 104H72V112H80V104Z" fill="white"/>
<path d="M80 120H72V128H80V120Z" fill="white"/>
<path d="M80 144H72V152H80V144Z" fill="white"/>
<path d="M80 168H72V176H80V168Z" fill="white"/>
<path d="M80 192H72V200H80V192Z" fill="white"/>
<path d="M80 216H72V224H80V216Z" fill="white"/>
<path d="M80 224H72V232H80V224Z" fill="white"/>
<path d="M88 0H80V8H88V0Z" fill="white"/>
<path d="M88 40H80V48H88V40Z" fill="white"/>
<path d="M88 48H80V56H88V48Z" fill="white"/>
<path d="M88 80H80V88H88V80Z" fill="white"/>
<path d="M88 88H80V96H88V88Z" fill="white"/>
<path d="M88 96H80V104H88V96Z" fill="white"/>
<path d="M88 104H80V112H88V104Z" fill="white"/>
<path d="M88 112H80V120H88V112Z" fill="white"/>
<path d="M88 120H80V128H88V120Z" fill="white"/>
<path d="M88 136H80V144H88V136Z" fill="white"/>
<path d="M88 144H80V152H88V144Z" fill="white"/>
<path d="M88 160H80V168H88V160Z" fill="white"/>
<path d="M88 184H80V192H88V184Z" fill="white"/>
<path d="M88 192H80V200H88V192Z" fill="white"/>
<path d="M88 200H80V208H88V200Z" fill="white"/>
<path d="M96 0H88V8H96V0Z" fill="white"/>
<path d="M96 8H88V16H96V8Z" fill="white"/>
<path d="M96 24H88V32H96V24Z" fill="white"/>
<path d="M96 32H88V40H96V32Z" fill="white"/>
<path d="M96 64H88V72H96V64Z" fill="white"/>
<path d="M96 88H88V96H96V88Z" fill="white"/>
<path d="M96 112H88V120H96V112Z" fill="white"/>
<path d="M96 128H88V136H96V128Z" fill="white"/>
<path d="M96 152H88V160H96V152Z" fill="white"/>
<path d="M96 176H88V184H96V176Z" fill="white"/>
<path d="M96 192H88V200H96V192Z" fill="white"/>
<path d="M96 216H88V224H96V216Z" fill="white"/>
<path d="M104 24H96V32H104V24Z" fill="white"/>
<path d="M104 32H96V40H104V32Z" fill="white"/>
<path d="M104 40H96V48H104V40Z" fill="white"/>
<path d="M104 48H96V56H104V48Z" fill="white"/>
<path d="M104 64H96V72H104V64Z" fill="white"/>
<path d="M104 72H96V80H104V72Z" fill="white"/>
<path d="M104 80H96V88H104V80Z" fill="white"/>
<path d="M104 88H96V96H104V88Z" fill="white"/>
<path d="M104 128H96V136H104V128Z" fill="white"/>
<path d="M104 136H96V144H104V136Z" fill="white"/>
<path d="M104 144H96V152H104V144Z" fill="white"/>
<path d="M104 152H96V160H104V152Z" fill="white"/>
<path d="M104 192H96V200H104V192Z" fill="white"/>
<path d="M104 200H96V208H104V200Z" fill="white"/>
<path d="M104 208H96V216H104V208Z" fill="white"/>
<path d="M104 216H96V224H104V216Z" fill="white"/>
<path d="M112 0H104V8H112V0Z" fill="white"/>
<path d="M112 16H104V24H112V16Z" fill="white"/>
<path d="M112 24H104V32H112V24Z" fill="white"/>
<path d="M112 32H104V40H112V32Z" fill="white"/>
<path d="M112 40H104V48H112V40Z" fill="white"/>
<path d="M112 80H104V88H112V80Z" fill="white"/>
<path d="M112 96H104V104H112V96Z" fill="white"/>
<path d="M112 104H104V112H112V104Z" fill="white"/>
<path d="M112 120H104V128H112V120Z" fill="white"/>
<path d="M112 128H104V136H112V128Z" fill="white"/>
<path d="M112 144H104V152H112V144Z" fill="white"/>
<path d="M112 160H104V168H112V160Z" fill="white"/>
<path d="M112 168H104V176H112V168Z" fill="white"/>
<path d="M112 184H104V192H112V184Z" fill="white"/>
<path d="M112 192H104V200H112V192Z" fill="white"/>
<path d="M112 208H104V216H112V208Z" fill="white"/>
<path d="M112 224H104V232H112V224Z" fill="white"/>
<path d="M120 8H112V16H120V8Z" fill="white"/>
<path d="M120 24H112V32H120V24Z" fill="white"/>
<path d="M120 48H112V56H120V48Z" fill="white"/>
<path d="M120 56H112V64H120V56Z" fill="white"/>
<path d="M120 96H112V104H120V96Z" fill="white"/>
<path d="M120 144H112V152H120V144Z" fill="white"/>
<path d="M120 152H112V160H120V152Z" fill="white"/>
<path d="M120 160H112V168H120V160Z" fill="white"/>
<path d="M120 168H112V176H120V168Z" fill="white"/>
<path d="M120 208H112V216H120V208Z" fill="white"/>
<path d="M120 216H112V224H120V216Z" fill="white"/>
<path d="M120 224H112V232H120V224Z" fill="white"/>
<path d="M128 16H120V24H128V16Z" fill="white"/>
<path d="M128 56H120V64H128V56Z" fill="white"/>
<path d="M128 64H120V72H128V64Z" fill="white"/>
<path d="M128 72H120V80H128V72Z" fill="white"/>
<path d="M128 80H120V88H128V80Z" fill="white"/>
<path d="M128 96H120V104H128V96Z" fill="white"/>
<path d="M128 104H120V112H128V104Z" fill="white"/>
<path d="M128 112H120V120H128V112Z" fill="white"/>
<path d="M128 120H120V128H128V120Z" fill="white"/>
<path d="M128 128H120V136H128V128Z" fill="white"/>
<path d="M128 136H120V144H128V136Z" fill="white"/>
<path d="M128 144H120V152H128V144Z" fill="white"/>
<path d="M128 160H120V168H128V160Z" fill="white"/>
<path d="M128 168H120V176H128V168Z" fill="white"/>
<path d="M128 176H120V184H128V176Z" fill="white"/>
<path d="M128 192H120V200H128V192Z" fill="white"/>
<path d="M128 200H120V208H128V200Z" fill="white"/>
<path d="M128 208H120V216H128V208Z" fill="white"/>
<path d="M128 224H120V232H128V224Z" fill="white"/>
<path d="M136 48H128V56H136V48Z" fill="white"/>
<path d="M136 72H128V80H136V72Z" fill="white"/>
<path d="M136 96H128V104H136V96Z" fill="white"/>
<path d="M136 104H128V112H136V104Z" fill="white"/>
<path d="M136 128H128V136H136V128Z" fill="white"/>
<path d="M136 136H128V144H136V136Z" fill="white"/>
<path d="M136 152H128V160H136V152Z" fill="white"/>
<path d="M136 160H128V168H136V160Z" fill="white"/>
<path d="M136 168H128V176H136V168Z" fill="white"/>
<path d="M136 176H128V184H136V176Z" fill="white"/>
<path d="M136 184H128V192H136V184Z" fill="white"/>
<path d="M136 200H128V208H136V200Z" fill="white"/>
<path d="M136 224H128V232H136V224Z" fill="white"/>
<path d="M144 0H136V8H144V0Z" fill="white"/>
<path d="M144 16H136V24H144V16Z" fill="white"/>
<path d="M144 24H136V32H144V24Z" fill="white"/>
<path d="M144 72H136V80H144V72Z" fill="white"/>
<path d="M144 136H136V144H144V136Z" fill="white"/>
<path d="M144 168H136V176H144V168Z" fill="white"/>
<path d="M152 0H144V8H152V0Z" fill="white"/>
<path d="M152 24H144V32H152V24Z" fill="white"/>
<path d="M152 32H144V40H152V32Z" fill="white"/>
<path d="M152 40H144V48H152V40Z" fill="white"/>
<path d="M152 48H144V56H152V48Z" fill="white"/>
<path d="M152 64H144V72H152V64Z" fill="white"/>
<path d="M152 112H144V120H152V112Z" fill="white"/>
<path d="M152 120H144V128H152V120Z" fill="white"/>
<path d="M152 152H144V160H152V152Z" fill="white"/>
<path d="M152 160H144V168H152V160Z" fill="white"/>
<path d="M152 184H144V192H152V184Z" fill="white"/>
<path d="M152 200H144V208H152V200Z" fill="white"/>
<path d="M152 208H144V216H152V208Z" fill="white"/>
<path d="M160 16H152V24H160V16Z" fill="white"/>
<path d="M160 72H152V80H160V72Z" fill="white"/>
<path d="M160 80H152V88H160V80Z" fill="white"/>
<path d="M160 88H152V96H160V88Z" fill="white"/>
<path d="M160 96H152V104H160V96Z" fill="white"/>
<path d="M160 104H152V112H160V104Z" fill="white"/>
<path d="M160 112H152V120H160V112Z" fill="white"/>
<path d="M160 136H152V144H160V136Z" fill="white"/>
<path d="M160 144H152V152H160V144Z" fill="white"/>
<path d="M160 160H152V168H160V160Z" fill="white"/>
<path d="M160 184H152V192H160V184Z" fill="white"/>
<path d="M160 192H152V200H160V192Z" fill="white"/>
<path d="M160 200H152V208H160V200Z" fill="white"/>
<path d="M168 24H160V32H168V24Z" fill="white"/>
<path d="M168 40H160V48H168V40Z" fill="white"/>
<path d="M168 48H160V56H168V48Z" fill="white"/>
<path d="M168 64H160V72H168V64Z" fill="white"/>
<path d="M168 72H160V80H168V72Z" fill="white"/>
<path d="M168 88H160V96H168V88Z" fill="white"/>
<path d="M168 96H160V104H168V96Z" fill="white"/>
<path d="M168 104H160V112H168V104Z" fill="white"/>
<path d="M168 128H160V136H168V128Z" fill="white"/>
<path d="M168 136H160V144H168V136Z" fill="white"/>
<path d="M168 144H160V152H168V144Z" fill="white"/>
<path d="M168 152H160V160H168V152Z" fill="white"/>
<path d="M168 160H160V168H168V160Z" fill="white"/>
<path d="M168 168H160V176H168V168Z" fill="white"/>
<path d="M168 176H160V184H168V176Z" fill="white"/>
<path d="M168 184H160V192H168V184Z" fill="white"/>
<path d="M168 192H160V200H168V192Z" fill="white"/>
<path d="M168 200H160V208H168V200Z" fill="white"/>
<path d="M168 216H160V224H168V216Z" fill="white"/>
<path d="M168 224H160V232H168V224Z" fill="white"/>
<path d="M176 64H168V72H176V64Z" fill="white"/>
<path d="M176 88H168V96H176V88Z" fill="white"/>
<path d="M176 120H168V128H176V120Z" fill="white"/>
<path d="M176 144H168V152H176V144Z" fill="white"/>
<path d="M176 152H168V160H176V152Z" fill="white"/>
<path d="M176 160H168V168H176V160Z" fill="white"/>
<path d="M176 192H168V200H176V192Z" fill="white"/>
<path d="M176 200H168V208H176V200Z" fill="white"/>
<path d="M176 208H168V216H176V208Z" fill="white"/>
<path d="M184 0H176V8H184V0Z" fill="white"/>
<path d="M184 8H176V16H184V8Z" fill="white"/>
<path d="M184 16H176V24H184V16Z" fill="white"/>
<path d="M184 24H176V32H184V24Z" fill="white"/>
<path d="M184 32H176V40H184V32Z" fill="white"/>
<path d="M184 40H176V48H184V40Z" fill="white"/>
<path d="M184 48H176V56H184V48Z" fill="white"/>
<path d="M184 64H176V72H184V64Z" fill="white"/>
<path d="M184 72H176V80H184V72Z" fill="white"/>
<path d="M184 80H176V88H184V80Z" fill="white"/>
<path d="M184 88H176V96H184V88Z" fill="white"/>
<path d="M184 96H176V104H184V96Z" fill="white"/>
<path d="M184 104H176V112H184V104Z" fill="white"/>
<path d="M184 112H176V120H184V112Z" fill="white"/>
<path d="M184 128H176V136H184V128Z" fill="white"/>
<path d="M184 136H176V144H184V136Z" fill="white"/>
<path d="M184 144H176V152H184V144Z" fill="white"/>
<path d="M184 152H176V160H184V152Z" fill="white"/>
<path d="M184 160H176V168H184V160Z" fill="white"/>
<path d="M184 176H176V184H184V176Z" fill="white"/>
<path d="M184 192H176V200H184V192Z" fill="white"/>
<path d="M184 216H176V224H184V216Z" fill="white"/>
<path d="M192 0H184V8H192V0Z" fill="white"/>
<path d="M192 48H184V56H192V48Z" fill="white"/>
<path d="M192 64H184V72H192V64Z" fill="white"/>
<path d="M192 72H184V80H192V72Z" fill="white"/>
<path d="M192 80H184V88H192V80Z" fill="white"/>
<path d="M192 88H184V96H192V88Z" fill="white"/>
<path d="M192 96H184V104H192V96Z" fill="white"/>
<path d="M192 120H184V128H192V120Z" fill="white"/>
<path d="M192 136H184V144H192V136Z" fill="white"/>
<path d="M192 152H184V160H192V152Z" fill="white"/>
<path d="M192 160H184V168H192V160Z" fill="white"/>
<path d="M192 192H184V200H192V192Z" fill="white"/>
<path d="M192 200H184V208H192V200Z" fill="white"/>
<path d="M192 216H184V224H192V216Z" fill="white"/>
<path d="M200 0H192V8H200V0Z" fill="white"/>
<path d="M200 16H192V24H200V16Z" fill="white"/>
<path d="M200 24H192V32H200V24Z" fill="white"/>
<path d="M200 32H192V40H200V32Z" fill="white"/>
<path d="M200 48H192V56H200V48Z" fill="white"/>
<path d="M200 64H192V72H200V64Z" fill="white"/>
<path d="M200 88H192V96H200V88Z" fill="white"/>
<path d="M200 160H192V168H200V160Z" fill="white"/>
<path d="M200 168H192V176H200V168Z" fill="white"/>
<path d="M200 176H192V184H200V176Z" fill="white"/>
<path d="M200 184H192V192H200V184Z" fill="white"/>
<path d="M200 192H192V200H200V192Z" fill="white"/>
<path d="M200 200H192V208H200V200Z" fill="white"/>
<path d="M200 208H192V216H200V208Z" fill="white"/>
<path d="M200 216H192V224H200V216Z" fill="white"/>
<path d="M200 224H192V232H200V224Z" fill="white"/>
<path d="M208 0H200V8H208V0Z" fill="white"/>
<path d="M208 16H200V24H208V16Z" fill="white"/>
<path d="M208 24H200V32H208V24Z" fill="white"/>
<path d="M208 32H200V40H208V32Z" fill="white"/>
<path d="M208 48H200V56H208V48Z" fill="white"/>
<path d="M208 80H200V88H208V80Z" fill="white"/>
<path d="M208 88H200V96H208V88Z" fill="white"/>
<path d="M208 144H200V152H208V144Z" fill="white"/>
<path d="M208 160H200V168H208V160Z" fill="white"/>
<path d="M208 168H200V176H208V168Z" fill="white"/>
<path d="M208 192H200V200H208V192Z" fill="white"/>
<path d="M208 200H200V208H208V200Z" fill="white"/>
<path d="M208 216H200V224H208V216Z" fill="white"/>
<path d="M216 0H208V8H216V0Z" fill="white"/>
<path d="M216 16H208V24H216V16Z" fill="white"/>
<path d="M216 24H208V32H216V24Z" fill="white"/>
<path d="M216 32H208V40H216V32Z" fill="white"/>
<path d="M216 48H208V56H216V48Z" fill="white"/>
<path d="M216 80H208V88H216V80Z" fill="white"/>
<path d="M216 136H208V144H216V136Z" fill="white"/>
<path d="M216 168H208V176H216V168Z" fill="white"/>
<path d="M216 200H208V208H216V200Z" fill="white"/>
<path d="M224 0H216V8H224V0Z" fill="white"/>
<path d="M224 48H216V56H224V48Z" fill="white"/>
<path d="M224 64H216V72H224V64Z" fill="white"/>
<path d="M224 72H216V80H224V72Z" fill="white"/>
<path d="M224 104H216V112H224V104Z" fill="white"/>
<path d="M224 136H216V144H224V136Z" fill="white"/>
<path d="M224 160H216V168H224V160Z" fill="white"/>
<path d="M224 184H216V192H224V184Z" fill="white"/>
<path d="M224 208H216V216H224V208Z" fill="white"/>
<path d="M232 0H224V8H232V0Z" fill="white"/>
<path d="M232 8H224V16H232V8Z" fill="white"/>
<path d="M232 16H224V24H232V16Z" fill="white"/>
<path d="M232 24H224V32H232V24Z" fill="white"/>
<path d="M232 32H224V40H232V32Z" fill="white"/>
<path d="M232 40H224V48H232V40Z" fill="white"/>
<path d="M232 48H224V56H232V48Z" fill="white"/>
<path d="M232 64H224V72H232V64Z" fill="white"/>
<path d="M232 72H224V80H232V72Z" fill="white"/>
<path d="M232 80H224V88H232V80Z" fill="white"/>
<path d="M232 96H224V104H232V96Z" fill="white"/>
<path d="M232 104H224V112H232V104Z" fill="white"/>
<path d="M232 112H224V120H232V112Z" fill="white"/>
<path d="M232 128H224V136H232V128Z" fill="white"/>
<path d="M232 136H224V144H232V136Z" fill="white"/>
<path d="M232 144H224V152H232V144Z" fill="white"/>
<path d="M232 168H224V176H232V168Z" fill="white"/>
<path d="M232 176H224V184H232V176Z" fill="white"/>
<path d="M232 184H224V192H232V184Z" fill="white"/>
<path d="M232 192H224V200H232V192Z" fill="white"/>
<path d="M232 200H224V208H232V200Z" fill="white"/>
<path d="M232 208H224V216H232V208Z" fill="white"/>
<path d="M232 224H224V232H232V224Z" fill="white"/>
</svg>
