<svg width="675" height="675" viewBox="0 0 675 675" fill="none" xmlns="http://www.w3.org/2000/svg">
<path d="M243 0H216V27H243V0Z" fill="white"/>
<path d="M324 0H297V27H324V0Z" fill="white"/>
<path d="M378 0H351V27H378V0Z" fill="white"/>
<path d="M243 27H216V54H243V27Z" fill="white"/>
<path d="M378 27H351V54H378V27Z" fill="white"/>
<path d="M459 27H432V54H459V27Z" fill="white"/>
<path d="M243 54H216V81H243V54Z" fill="white"/>
<path d="M324 54H297V81H324V54Z" fill="white"/>
<path d="M378 54H351V81H378V54Z" fill="white"/>
<path d="M432 54H405V81H432V54Z" fill="white"/>
<path d="M459 54H432V81H459V54Z" fill="white"/>
<path d="M324 81H297V108H324V81Z" fill="white"/>
<path d="M378 81H351V108H378V81Z" fill="white"/>
<path d="M432 81H405V108H432V81Z" fill="white"/>
<path d="M459 81H432V108H459V81Z" fill="white"/>
<path d="M243 108H216V135H243V108Z" fill="white"/>
<path d="M270 108H243V135H270V108Z" fill="white"/>
<path d="M297 108H270V135H297V108Z" fill="white"/>
<path d="M324 108H297V135H324V108Z" fill="white"/>
<path d="M351 108H324V135H351V108Z" fill="white"/>
<path d="M405 108H378V135H405V108Z" fill="white"/>
<path d="M459 108H432V135H459V108Z" fill="white"/>
<path d="M270 135H243V162H270V135Z" fill="white"/>
<path d="M297 135H270V162H297V135Z" fill="white"/>
<path d="M243 162H216V189H243V162Z" fill="white"/>
<path d="M297 162H270V189H297V162Z" fill="white"/>
<path d="M351 162H324V189H351V162Z" fill="white"/>
<path d="M405 162H378V189H405V162Z" fill="white"/>
<path d="M459 162H432V189H459V162Z" fill="white"/>
<path d="M351 189H324V216H351V189Z" fill="white"/>
<path d="M378 189H351V216H378V189Z" fill="white"/>
<path d="M432 189H405V216H432V189Z" fill="white"/>
<path d="M459 189H432V216H459V189Z" fill="white"/>
<path d="M27 216H0V243H27V216Z" fill="white"/>
<path d="M108 216H81V243H108V216Z" fill="white"/>
<path d="M135 216H108V243H135V216Z" fill="white"/>
<path d="M162 216H135V243H162V216Z" fill="white"/>
<path d="M189 216H162V243H189V216Z" fill="white"/>
<path d="M216 216H189V243H216V216Z" fill="white"/>
<path d="M243 216H216V243H243V216Z" fill="white"/>
<path d="M270 216H243V243H270V216Z" fill="white"/>
<path d="M324 216H297V243H324V216Z" fill="white"/>
<path d="M351 216H324V243H351V216Z" fill="white"/>
<path d="M405 216H378V243H405V216Z" fill="white"/>
<path d="M432 216H405V243H432V216Z" fill="white"/>
<path d="M459 216H432V243H459V216Z" fill="white"/>
<path d="M486 216H459V243H486V216Z" fill="white"/>
<path d="M567 216H540V243H567V216Z" fill="white"/>
<path d="M621 216H594V243H621V216Z" fill="white"/>
<path d="M648 216H621V243H648V216Z" fill="white"/>
<path d="M675 216H648V243H675V216Z" fill="white"/>
<path d="M54 243H27V270H54V243Z" fill="white"/>
<path d="M270 243H243V270H270V243Z" fill="white"/>
<path d="M297 243H270V270H297V243Z" fill="white"/>
<path d="M351 243H324V270H351V243Z" fill="white"/>
<path d="M378 243H351V270H378V243Z" fill="white"/>
<path d="M405 243H378V270H405V243Z" fill="white"/>
<path d="M432 243H405V270H432V243Z" fill="white"/>
<path d="M540 243H513V270H540V243Z" fill="white"/>
<path d="M567 243H540V270H567V243Z" fill="white"/>
<path d="M594 243H567V270H594V243Z" fill="white"/>
<path d="M621 243H594V270H621V243Z" fill="white"/>
<path d="M648 243H621V270H648V243Z" fill="white"/>
<path d="M81 270H54V297H81V270Z" fill="white"/>
<path d="M108 270H81V297H108V270Z" fill="white"/>
<path d="M162 270H135V297H162V270Z" fill="white"/>
<path d="M189 270H162V297H189V270Z" fill="white"/>
<path d="M216 270H189V297H216V270Z" fill="white"/>
<path d="M243 270H216V297H243V270Z" fill="white"/>
<path d="M297 270H270V297H297V270Z" fill="white"/>
<path d="M351 270H324V297H351V270Z" fill="white"/>
<path d="M432 270H405V297H432V270Z" fill="white"/>
<path d="M459 270H432V297H459V270Z" fill="white"/>
<path d="M513 270H486V297H513V270Z" fill="white"/>
<path d="M540 270H513V297H540V270Z" fill="white"/>
<path d="M594 270H567V297H594V270Z" fill="white"/>
<path d="M675 270H648V297H675V270Z" fill="white"/>
<path d="M27 297H0V324H27V297Z" fill="white"/>
<path d="M108 297H81V324H108V297Z" fill="white"/>
<path d="M243 297H216V324H243V297Z" fill="white"/>
<path d="M270 297H243V324H270V297Z" fill="white"/>
<path d="M459 297H432V324H459V297Z" fill="white"/>
<path d="M513 297H486V324H513V297Z" fill="white"/>
<path d="M540 297H513V324H540V297Z" fill="white"/>
<path d="M594 297H567V324H594V297Z" fill="white"/>
<path d="M621 297H594V324H621V297Z" fill="white"/>
<path d="M648 297H621V324H648V297Z" fill="white"/>
<path d="M675 297H648V324H675V297Z" fill="white"/>
<path d="M54 324H27V351H54V324Z" fill="white"/>
<path d="M108 324H81V351H108V324Z" fill="white"/>
<path d="M135 324H108V351H135V324Z" fill="white"/>
<path d="M189 324H162V351H189V324Z" fill="white"/>
<path d="M297 324H270V351H297V324Z" fill="white"/>
<path d="M405 324H378V351H405V324Z" fill="white"/>
<path d="M459 324H432V351H459V324Z" fill="white"/>
<path d="M513 324H486V351H513V324Z" fill="white"/>
<path d="M540 324H513V351H540V324Z" fill="white"/>
<path d="M675 324H648V351H675V324Z" fill="white"/>
<path d="M27 351H0V378H27V351Z" fill="white"/>
<path d="M135 351H108V378H135V351Z" fill="white"/>
<path d="M162 351H135V378H162V351Z" fill="white"/>
<path d="M351 351H324V378H351V351Z" fill="white"/>
<path d="M405 351H378V378H405V351Z" fill="white"/>
<path d="M432 351H405V378H432V351Z" fill="white"/>
<path d="M459 351H432V378H459V351Z" fill="white"/>
<path d="M567 351H540V378H567V351Z" fill="white"/>
<path d="M648 351H621V378H648V351Z" fill="white"/>
<path d="M27 378H0V405H27V378Z" fill="white"/>
<path d="M54 378H27V405H54V378Z" fill="white"/>
<path d="M81 378H54V405H81V378Z" fill="white"/>
<path d="M108 378H81V405H108V378Z" fill="white"/>
<path d="M135 378H108V405H135V378Z" fill="white"/>
<path d="M162 378H135V405H162V378Z" fill="white"/>
<path d="M189 378H162V405H189V378Z" fill="white"/>
<path d="M243 378H216V405H243V378Z" fill="white"/>
<path d="M297 378H270V405H297V378Z" fill="white"/>
<path d="M405 378H378V405H405V378Z" fill="white"/>
<path d="M432 378H405V405H432V378Z" fill="white"/>
<path d="M459 378H432V405H459V378Z" fill="white"/>
<path d="M513 378H486V405H513V378Z" fill="white"/>
<path d="M567 378H540V405H567V378Z" fill="white"/>
<path d="M594 378H567V405H594V378Z" fill="white"/>
<path d="M621 378H594V405H621V378Z" fill="white"/>
<path d="M648 378H621V405H648V378Z" fill="white"/>
<path d="M675 378H648V405H675V378Z" fill="white"/>
<path d="M27 405H0V432H27V405Z" fill="white"/>
<path d="M108 405H81V432H108V405Z" fill="white"/>
<path d="M216 405H189V432H216V405Z" fill="white"/>
<path d="M243 405H216V432H243V405Z" fill="white"/>
<path d="M297 405H270V432H297V405Z" fill="white"/>
<path d="M351 405H324V432H351V405Z" fill="white"/>
<path d="M405 405H378V432H405V405Z" fill="white"/>
<path d="M486 405H459V432H486V405Z" fill="white"/>
<path d="M540 405H513V432H540V405Z" fill="white"/>
<path d="M594 405H567V432H594V405Z" fill="white"/>
<path d="M621 405H594V432H621V405Z" fill="white"/>
<path d="M675 405H648V432H675V405Z" fill="white"/>
<path d="M27 432H0V459H27V432Z" fill="white"/>
<path d="M81 432H54V459H81V432Z" fill="white"/>
<path d="M189 432H162V459H189V432Z" fill="white"/>
<path d="M216 432H189V459H216V432Z" fill="white"/>
<path d="M243 432H216V459H243V432Z" fill="white"/>
<path d="M270 432H243V459H270V432Z" fill="white"/>
<path d="M297 432H270V459H297V432Z" fill="white"/>
<path d="M324 432H297V459H324V432Z" fill="white"/>
<path d="M351 432H324V459H351V432Z" fill="white"/>
<path d="M378 432H351V459H378V432Z" fill="white"/>
<path d="M432 432H405V459H432V432Z" fill="white"/>
<path d="M459 432H432V459H459V432Z" fill="white"/>
<path d="M486 432H459V459H486V432Z" fill="white"/>
<path d="M513 432H486V459H513V432Z" fill="white"/>
<path d="M540 432H513V459H540V432Z" fill="white"/>
<path d="M567 432H540V459H567V432Z" fill="white"/>
<path d="M621 432H594V459H621V432Z" fill="white"/>
<path d="M648 432H621V459H648V432Z" fill="white"/>
<path d="M243 459H216V486H243V459Z" fill="white"/>
<path d="M297 459H270V486H297V459Z" fill="white"/>
<path d="M324 459H297V486H324V459Z" fill="white"/>
<path d="M459 459H432V486H459V459Z" fill="white"/>
<path d="M567 459H540V486H567V459Z" fill="white"/>
<path d="M621 459H594V486H621V459Z" fill="white"/>
<path d="M648 459H621V486H648V459Z" fill="white"/>
<path d="M243 486H216V513H243V486Z" fill="white"/>
<path d="M270 486H243V513H270V486Z" fill="white"/>
<path d="M351 486H324V513H351V486Z" fill="white"/>
<path d="M405 486H378V513H405V486Z" fill="white"/>
<path d="M459 486H432V513H459V486Z" fill="white"/>
<path d="M513 486H486V513H513V486Z" fill="white"/>
<path d="M567 486H540V513H567V486Z" fill="white"/>
<path d="M675 486H648V513H675V486Z" fill="white"/>
<path d="M243 513H216V540H243V513Z" fill="white"/>
<path d="M324 513H297V540H324V513Z" fill="white"/>
<path d="M378 513H351V540H378V513Z" fill="white"/>
<path d="M432 513H405V540H432V513Z" fill="white"/>
<path d="M459 513H432V540H459V513Z" fill="white"/>
<path d="M567 513H540V540H567V513Z" fill="white"/>
<path d="M675 513H648V540H675V513Z" fill="white"/>
<path d="M243 540H216V567H243V540Z" fill="white"/>
<path d="M270 540H243V567H270V540Z" fill="white"/>
<path d="M324 540H297V567H324V540Z" fill="white"/>
<path d="M351 540H324V567H351V540Z" fill="white"/>
<path d="M405 540H378V567H405V540Z" fill="white"/>
<path d="M432 540H405V567H432V540Z" fill="white"/>
<path d="M459 540H432V567H459V540Z" fill="white"/>
<path d="M486 540H459V567H486V540Z" fill="white"/>
<path d="M513 540H486V567H513V540Z" fill="white"/>
<path d="M540 540H513V567H540V540Z" fill="white"/>
<path d="M567 540H540V567H567V540Z" fill="white"/>
<path d="M243 567H216V594H243V567Z" fill="white"/>
<path d="M270 567H243V594H270V567Z" fill="white"/>
<path d="M297 567H270V594H297V567Z" fill="white"/>
<path d="M351 567H324V594H351V567Z" fill="white"/>
<path d="M378 567H351V594H378V567Z" fill="white"/>
<path d="M405 567H378V594H405V567Z" fill="white"/>
<path d="M432 567H405V594H432V567Z" fill="white"/>
<path d="M486 567H459V594H486V567Z" fill="white"/>
<path d="M513 567H486V594H513V567Z" fill="white"/>
<path d="M648 567H621V594H648V567Z" fill="white"/>
<path d="M675 567H648V594H675V567Z" fill="white"/>
<path d="M270 594H243V621H270V594Z" fill="white"/>
<path d="M324 594H297V621H324V594Z" fill="white"/>
<path d="M378 594H351V621H378V594Z" fill="white"/>
<path d="M459 594H432V621H459V594Z" fill="white"/>
<path d="M486 594H459V621H486V594Z" fill="white"/>
<path d="M567 594H540V621H567V594Z" fill="white"/>
<path d="M594 594H567V621H594V594Z" fill="white"/>
<path d="M621 594H594V621H621V594Z" fill="white"/>
<path d="M648 594H621V621H648V594Z" fill="white"/>
<path d="M675 594H648V621H675V594Z" fill="white"/>
<path d="M297 621H270V648H297V621Z" fill="white"/>
<path d="M405 621H378V648H405V621Z" fill="white"/>
<path d="M486 621H459V648H486V621Z" fill="white"/>
<path d="M540 621H513V648H540V621Z" fill="white"/>
<path d="M567 621H540V648H567V621Z" fill="white"/>
<path d="M621 621H594V648H621V621Z" fill="white"/>
<path d="M648 621H621V648H648V621Z" fill="white"/>
<path d="M675 621H648V648H675V621Z" fill="white"/>
<path d="M243 648H216V675H243V648Z" fill="white"/>
<path d="M351 648H324V675H351V648Z" fill="white"/>
<path d="M405 648H378V675H405V648Z" fill="white"/>
<path d="M459 648H432V675H459V648Z" fill="white"/>
<path d="M594 648H567V675H594V648Z" fill="white"/>
<path d="M675 648H648V675H675V648Z" fill="white"/>
<path d="M160.65 0H28.35H0V28.35V160.65V189H28.35H160.65H189V160.65V28.35V0H160.65ZM160.65 160.65H28.35V28.35H160.65V160.65Z" fill="white"/>
<path d="M646.65 0H514.35H486V28.35V160.65V189H514.35H646.65H675V160.65V28.35V0H646.65ZM646.65 160.65H514.35V28.35H646.65V160.65Z" fill="white"/>
<path d="M160.65 486H28.35H0V514.35V646.65V675H28.35H160.65H189V646.65V514.35V486H160.65ZM160.65 646.65H28.35V514.35H160.65V646.65Z" fill="white"/>
<path d="M135 54H54V135H135V54Z" fill="white"/>
<path d="M621 54H540V135H621V54Z" fill="white"/>
<path d="M135 540H54V621H135V540Z" fill="white"/>
</svg>
