<svg width="61" height="40" viewBox="0 0 61 40" fill="none" xmlns="http://www.w3.org/2000/svg">
<path d="M0 33.3343C0 37.0032 3.00238 40 6.66573 40H18.4344C19.8012 40 21.1679 39.6023 22.3666 38.8685C23.5653 38.1011 24.568 37.0368 25.201 35.7709L28.2369 29.9062C28.601 29.206 29.2396 28.8083 30.0014 28.8083C30.7632 28.8083 31.4018 29.206 31.7659 29.9062L34.8018 35.7709C35.4348 37.0368 36.4375 38.1067 37.6362 38.8685C38.8349 39.6023 40.2017 40 41.5684 40H53.3371C57.006 40 60.0028 36.9976 60.0028 33.3343V6.66573C60.0028 2.99678 57.0004 0 53.3371 0H6.66573C2.99678 0 0 3.00238 0 6.66573V33.3343ZM16.6699 26.6685C13.001 26.6685 10.0042 23.6662 10.0042 20.0028C10.0042 16.3338 13.0066 13.3371 16.6699 13.3371C20.3389 13.3371 23.3357 16.3394 23.3357 20.0028C23.3357 23.6662 20.3389 26.6685 16.6699 26.6685ZM43.3385 26.6685C39.6695 26.6685 36.6727 23.6662 36.6727 20.0028C36.6727 16.3338 39.6751 13.3371 43.3385 13.3371C47.0074 13.3371 50.0042 16.3394 50.0042 20.0028C50.0042 23.6662 47.0074 26.6685 43.3385 26.6685Z" fill="white"/>
<path d="M0 33.3343C0 37.0032 3.00238 40 6.66573 40H18.4344C19.8012 40 21.1679 39.6023 22.3666 38.8685C23.5653 38.1011 24.568 37.0368 25.201 35.7709L28.2369 29.9062C28.601 29.206 29.2396 28.8083 30.0014 28.8083C30.7632 28.8083 31.4018 29.206 31.7659 29.9062L34.8018 35.7709C35.4348 37.0368 36.4375 38.1067 37.6362 38.8685C38.8349 39.6023 40.2017 40 41.5684 40H53.3371C57.006 40 60.0028 36.9976 60.0028 33.3343V6.66573C60.0028 2.99678 57.0004 0 53.3371 0H6.66573C2.99678 0 0 3.00238 0 6.66573V33.3343ZM16.6699 26.6685C13.001 26.6685 10.0042 23.6662 10.0042 20.0028C10.0042 16.3338 13.0066 13.3371 16.6699 13.3371C20.3389 13.3371 23.3357 16.3394 23.3357 20.0028C23.3357 23.6662 20.3389 26.6685 16.6699 26.6685ZM43.3385 26.6685C39.6695 26.6685 36.6727 23.6662 36.6727 20.0028C36.6727 16.3338 39.6751 13.3371 43.3385 13.3371C47.0074 13.3371 50.0042 16.3394 50.0042 20.0028C50.0042 23.6662 47.0074 26.6685 43.3385 26.6685Z" fill="white"/>
</svg>
