<?xml version="1.0" encoding="utf-8"?>
<!-- Generator: Adobe Illustrator 23.0.6, SVG Export Plug-In . SVG Version: 6.00 Build 0)  -->
<svg version="1.1" id="Слой_1" xmlns="http://www.w3.org/2000/svg" xmlns:xlink="http://www.w3.org/1999/xlink" x="0px" y="0px"
	 viewBox="0 0 1366 768" style="enable-background:new 0 0 1366 768;" xml:space="preserve">
<style type="text/css">
	.st0{opacity:0.5;fill:#FFFFFF;}
	.st1{opacity:0.5;fill-rule:evenodd;clip-rule:evenodd;fill:#FFFFFF;}
</style>
<g>
	<path class="st0" d="M307.91,483.99c-2.97,0.26-6.08,0.39-9.35,0.39c-31.08,0-61.21-10.04-80.81-20.08l-13.83,56.21
		c9.87,0.66,17.72,2.06,25.14-2.14c0.86-6.78-5.78-13.14,6.06-17.53c26.26-9.73,52.58,15.12,67.28-3.56
		C305.16,493.74,307,488.87,307.91,483.99"/>
	<path class="st0" d="M202.92,524.55c6.92,3.82,16.47,7.57,27.68,10.76c10.2-1.79,17.96-6.2,19.73-17.82
		c1.95-12.75,13.39-10.12,22.74-7.54c10.2,2.81,20.29,2.19,30.31-1c16.43-5.22,25.69-17.95,29.27-31.62
		c-4.37,2.36-9.55,4.17-15.53,5.37c-0.46,1.55-1.09,3.06-1.9,4.52c0.17-1.61,0.37-3,0.56-4.26c-1.77,0.32-3.61,0.59-5.51,0.8
		c-1.68,9.81-7.23,19.17-16.24,21.86c-11.72,3.49-24.88-2.79-36.46-4.26c-5.97-0.76-13.45-0.6-18.74,2.58
		c-8.85,5.32-2.83,9.34-3.35,15.52c-6.78,6.07-23.32,4.85-32.22,3.75L202.92,524.55z"/>
	<path class="st0" d="M729.72,409.78h56.52c-2.42-2.33-4.48-4.89-6.9-7.3c-4.31-4.3-17.42-20.84-19.27-24.92
		c-1.28,1.85-1.41,5.56-1.89,7.92c-0.12,0.58-0.21,1.06-0.43,1.61l-3.61-13.72c-2.09,5.32-1.75,24.12-3.95,29.12
		c-1.68-2.57-3.7-14.54-4.98-18.59c-0.71,3.76-1.39,7.58-2.16,11.34c-0.38,1.87-0.7,3.78-1.07,5.66c-0.19,0.95-0.31,1.73-0.47,2.67
		c-0.25,1.46,0.05,1.78-0.94,2.53l-2.61-5.52C735.05,403.74,732.33,406.81,729.72,409.78 M686.1,435.61v-25.83h29.92
		c4.86-5.11,9.58-10.5,14.34-16.15c4.59-5.54,9.03-11.4,12.98-17.37c1.35-2.03,2.79-4.07,4.09-6.18c1.36-2.21,6.72-11.37,7.9-12.28
		c2.02,1.65,8.24,12.09,10.58,15.1c4.23,5.46,11.64,16.12,16.69,21.21c2.62,2.64,4.78,5.84,7.58,8.19l7.66,7.48h3.98v-59.3H686.1
		v-73.64h162.92v-59.77H612.93v212.27c2.06-2.01,4.11-4.12,6.16-6.31c1.21-1.29,2.44-2.24,3.61-3.52
		c5.68-6.2,10.7-12.85,15.88-19.52c2.25-2.9,9.88-15.47,11.29-16.95c1.1,0.97,2.97,4.64,3.89,6.12
		c11.13,17.79,17.13,24.57,29.57,39.13c-10.01-3.5-21.11-15.02-27.19-23.63l-2.91-4.01c-0.03-0.13-0.14-0.13-0.16-0.19l-2.8,11.65
		l-0.63-1.35c-0.93-2.83-1.21-5.98-2.34-8.69c-0.91,1.76-2.07,6.34-2.78,8.5c-0.63,1.93-1.61,6.93-3.08,8.4l0.08-14.74
		c-1.02,0.87-2.76,3.69-3.63,5.07c-4.22,6.65-10.14,13.78-15.75,19.29c-1.53,1.5-2.87,2.7-4.31,4.27c-1.01,1.1-1.18,1.24-2.23,2.06
		c-1.01,0.78-1.26,1.28-2.18,2.09c-0.15,0.13-0.31,0.27-0.48,0.42v22.85c11.73-0.22,23.53-2.19,35.36-5.92
		c10.25-3.23,19.62-7.72,28.02-12.59C679.72,439.79,682.98,437.73,686.1,435.61z M686.1,482.72V449.5
		c-2.12,1.24-4.33,2.48-6.67,3.69c-21.52,11.2-43.41,17.07-66.49,15.3v25.4c0.59,0.03,1.17,0.06,1.74,0.09
		c16.32,0.71,32.78-0.87,47.74-4.55c7.11-1.75,13.67-4.05,20.56-5.89L686.1,482.72z M686.1,510.92v-19.14
		c-6.39,2.01-13.37,3.73-21.61,5.06c-16.75,2.7-34.53,3.37-51.41,0.93l-0.15-0.02v17.86c3.4,0.47,6.79,0.81,10.14,1.03
		c12.19,0.77,24.93,1.04,36.77-0.75c5.92-0.9,10.64-1.54,16.55-2.7C679.47,512.6,682.73,511.83,686.1,510.92z M640.92,340.66
		l-0.44,0.11L640.92,340.66z M612.93,539.38h73.17v-18.21c-9.21,1.94-18.8,2.98-28.01,3.13c-10.85,0.18-23.92-0.58-34.48-2.74
		c-2.17-0.45-6.26-1.44-10.67-2.63V539.38z"/>
	<path class="st0" d="M238.96,537.5c16.56,3.99,35.86,6.66,55.29,6.66c44.57,0,77.24-11.66,98.7-30.13
		c-12.91-0.11-25.73,2.5-38.06,7.7c-6.41,2.7-11.52,6.11-17.47,8.82c18.81-13.84,39.55-23.01,62.25-22.9
		c7.88-8.28,13.85-17.64,17.93-27.75c0.26-5.52,0.34-12.16-0.54-20.38c-3-28.2-13.18-54.94-33.66-75.24
		c-11.79-11.69-28.44-23.89-45.05-27.19c-8.58-1.71-21.79-0.78-26.34,8.04c-6.4,12.4,16.63,15.92,12.34-0.43
		c54.33,4.79,84.86,89.01,38.21,139.96c-10.29,11.24-33.59,24.36-48.77,25.83c-0.35,0,13.09-4.41,22.22-10.28
		c7.31-4.71,11.84-8.67,17.92-14.83c23.22-23.54,26.91-70.92,10.95-100.6c-5.9-10.97-20.71-30.85-34.37-31.23
		c-3.39,4.63-5.26,8.59-12.04,8.37c-18.16-0.57-18.92-25.67,5.42-28.93c40-5.38,76.1,35.09,89.52,72.14
		c5.86,16.17,7.88,31.33,6.88,47.09c2.7-8.93,4.03-18.34,4.03-28.01c0-45.43-26.78-75.08-83.69-96.12
		c-41.6-15.78-59.78-24.86-59.78-45.43c0-16.74,15.3-31.08,46.86-31.08s54.51,9.09,67.43,15.3l16.26-58.82
		c-19.13-8.61-45.91-16.26-82.25-16.26c-76.03,0-121.94,42.08-121.94,97.07c0,46.78,34.79,76.41,88.19,95.06
		c2.23-0.53,4.45-0.95,6.34-1.55c-1.15-10.5-12.08-19.47-22.73-19.74c-1.81,2.27-1.56,4.66-4.33,5.44c-7.63,2.14-8.98-13,4.33-13.73
		c10.85-0.59,19.81,5.7,27.22,12.84c3.32,3.2,6.28,6.69,9.01,10.39c5.71,7.71,2.39,4.72,10.83,9.23
		c25.77,13.77,46.27,47.3,34.95,77.53c-5.67,15.15-24.09,35.4-39.8,39.74c12.63-10.55,19.73-11.28,31.39-30.04
		c9.07-14.59,11.49-32.27,3.69-47.95c-9.97-20.05-28.11-40.43-51.9-40.5c-1.06,0-2.33,0.1-3.68,0.3
		c35.01,13.07,48.98,24.4,48.98,43.58c0,4.14-0.69,8-2.04,11.53c2.26,16.68-4.15,34.44-22.84,47.37
		c-35.85,24.8-56.02-0.72-66.51,7.03C252.81,519.48,260.6,531.5,238.96,537.5"/>
	<path class="st0" d="M473.58,455.12c-0.06,22.52,9.78,56.61,25.52,63.8c-6.29-17.51-19.43-24.9-19.43-63.8
		c0-22.08,7.04-30.87,12.09-48.44l-7.18,8.71c-2.6,4.39-3.72,6.99-5.53,11.64C475.78,435.41,473.6,444.84,473.58,455.12
		 M546.74,505.55v-6.29c-30.52-15.66-33.47-65.8,0-82.55v-7.32c-2.05,1.2-4.13,2.57-6.23,4.15c-30.55,23.01-29.72,69.34,2.68,89.87
		C544.41,504.17,545.59,504.89,546.74,505.55z M546.74,531.56v-8.53c-48.98-14.82-65.42-87.88-19.5-119.65
		c4.7-3.25,11.7-6.62,19.5-9.11v-12.49c-6.34,4.87-19.28,8.23-34.73,28.23c-29.2,37.8-17.33,92.3,24.74,116.98
		C539.22,528.44,542.96,529.96,546.74,531.56z M473.58,217.07v322.31h73.16v-0.76c-16.62-2.87-31.07-13.31-39.14-21.51
		c-52.9-53.76-10.96-134.48,39.14-138.34v-161.7H473.58z"/>
	<path class="st0" d="M1007.35,407.55 M1009.35,433.3l-0.14,0.14L1009.35,433.3z M1009.21,433.44l-0.14,0.29L1009.21,433.44z
		 M1015.51,440.46l-0.17-0.28L1015.51,440.46z M1050.71,443.75l0.04,0.04C1050.75,443.79,1050.7,443.76,1050.71,443.75z
		 M1001.77,452.45v86.56l7.7-1.71c5.57-1.1,11.4-2.53,16.98-3.62c1.47-0.29,2.86-0.62,4.24-0.91c2.63-0.54,3.24-0.45,5.11-2.48
		c0.28-0.31,0.3-0.42,0.57-0.72c0.27-0.3,0.37-0.37,0.61-0.68c0.73-0.96,1.51-1.97,2.14-3.01l1.86-3.29
		c2.68-5.16,4.33-9.18,5.73-14.88c1.18-4.81-0.17-13.73-0.98-18.63c-0.24-1.44-0.54-2.99-0.85-4.3c-1.79-7.6-4.37-16.52-7.06-23.71
		l-8.71-22.06c-0.94,0.08-1.22,0.53-2.01,0.72l-1.61-1.97c-0.33-0.37-0.41-0.55-0.79-0.93c-0.32-0.32-0.54-0.59-0.9-0.82
		c-0.71,3.06,0.11,5.16,1.58,7.72c0.35,0.62,1.03,1.52,1.14,2.01c-0.65-0.44-0.8-0.52-1.57-0.86c-0.46-0.2-1.14-0.48-1.58-0.71
		c0.02,1,0.93,1.94,1.58,3.15c-0.87,0-1.93,0.11-2.53,0.76l-0.19,0.24c0.45,0.67,0.87,1.22,1.35,1.95c1.27,1.93,2.52,4.87,2.52,7.35
		c-2.19-0.05-4.98-3.95-5.77-5.53c-1.26-2.52-1.82-5.21-1.96-8.06c-0.03-0.64-0.13-0.52-0.14-1.15c-1,0.08-0.63,0.5-1.58,0.72
		c-0.13-0.57-0.31-1.01-0.49-1.66c-0.08-0.3-0.16-0.57-0.28-0.86c-0.06-0.14-0.12-0.26-0.19-0.38c-0.22-0.36,0-0.04-0.18-0.25
		c0,0.7,0.19,1.45,0.31,2.13c0.12,0.71,0.25,1.35,0.41,2.02c-0.54-0.36-0.31-0.56-1.45-1.41c-0.57-0.42-1.12-0.78-1.7-1.16
		c0.12,0.45,1.12,1.63,1.77,3.81c0.66,2.2,0.37,3.03,0.37,4.77c-0.66-0.18-1.4-1.19-1.89-1.68c-0.57-0.57-1.2-1.33-1.83-1.76
		c0.05,0.59,0.68,2.33,0.92,2.95c0.37,0.97,0.71,1.84,1.03,2.83c0.66,2.04,1.17,4.03,0.62,6.39c-0.49-0.32-1.33-1.67-1.76-2.24
		c-2.87-3.84-5.62-9.46-4.74-14.42c0.53-3.02,1.44-3.64,2.35-5.37c-1.07,0.29-3.57,3-3.58,3.01c0.08-1.03,0.78-2.71,1.19-3.53
		l1.53-3.05c-1.02,0.68-2.97,3.75-3.72,4.87c-0.74-0.39-0.42-0.39-1.58-1c0,2.55-0.61,5.14-1.06,7.38
		c-0.77,3.81-0.66,4.06-0.66,7.78C1001.97,452.7,1001.88,452.6,1001.77,452.45z M1001.77,431.19v2.08c0.32-0.55,0.67-1.1,1.03-1.65
		c1.73-2.61,3.99-4.76,4.27-5.18c-1.17,0.27-2.75,1.69-3.54,2.46C1002.8,429.62,1002.27,430.35,1001.77,431.19z M1001.77,415.49
		v2.96c0.86-0.4,1.82-0.75,2.92-1.12c2.67-0.88,6.96-2.11,10.25-1.34c-0.42-0.57-1.95-1.21-2.76-1.53
		c-2.27-0.91-4.85-0.84-7.29-0.21c-1.2,0.31-2.06,0.72-3.07,1.22L1001.77,415.49z M1001.77,401.09v4.42
		c0.62,0.23,1.05,0.47,1.87,0.89c-0.01-0.61,0.08-0.32-0.18-0.68l-0.39-0.32c0.66,0.05,0.19,0,1.13,0.58
		c0.63,0.39,2.58,1.43,3.16,1.57c-0.33-0.49-0.68-0.86-1.06-1.37c-0.46-0.61-0.82-0.92-0.94-1.35c1,0.67,2.16,1.2,3.15,1.86
		c1.69,1.11,2.51,2.15,2.72,2.29c-0.53-2.27-1.15-3.39-2.75-4.98c-0.35-0.35-1.01-0.88-1.42-1.15c-0.89-0.58-2.37-1.29-3.61-1.54
		C1002.75,401.17,1002.21,401.11,1001.77,401.09z M1074.93,428.78v-150.5h87.99v-61.21H915.21v61.21h86.55v121.7
		c3.36-1.95,6.89-4.7,11.07-2.36c0.76,0.43,1.2,0.92,1.67,1.05c0-0.66,0.19-1.84,0.26-2.46c0.38-3.38,0.85-7.42,3.58-9.59
		c1.04-0.83,2.07-1.17,3.66-1.49c1.58-0.32,3.43-0.35,4.67,0.22c0.98,0.45,2.13,1.76,1.78,3.36c-0.57,2.63-3.55,4.61-5.79,4.66
		l0.91,0.52c1.16,0.57,1.71,1.05,2.96,1.05v0.29c-0.41,0.11-0.7,0.42-1.04,0.67l-2.82,2.33c2.43-0.05,9.09-4.74,10.77-6.12l3.5-2.93
		c2.05-1.99,3.29-2.76,4.76-5.54c1.33,0.97,1.76,5.01,0.57,7.29c-1.29,2.48-3.28,3.15-6.01,3.15c0,0.88,0.23,0.85,0.28,1.58
		c-0.87,0.2-0.18,0.29-1.72,0.29v0.28c1.12,0.09,3.66,1.51,4.77,2.1c1.73,0.92,5.55,3.44,6.54,4.91h-2
		c0.23,0.34,0.51,0.46,0.83,0.75c0.84,0.77,1.7,2.01,2.04,2.25c0.26,0.71,2.23,3.2,2.84,5.01c-0.82-0.72-1.9-2.14-3.27-2.97
		c-1.86-1.54-7.04-4.74-9.01-4.9c0.02,0.96,0.43,1.08,0.43,2.15c-0.79-0.38-2.85-0.21-3.66,0.06c-0.59,0.2-0.89,0.4-1.35,0.65
		l-1.14,0.72c0.81,0,1.26-0.24,2.27-0.12c2.74,0.31,3.06,0.24,5.83,1.17c1.05,0.35,2.3,1.01,3.15,1.58l2.69,2.09
		c0.36,0.59,1.14,1.31,1.91,2.46c2.07,3.07,3,6.85,2.8,10.72l-3.33-4.12c-0.27,0.25-0.35,0.48-0.57,0.85l-1.45-3
		c-0.92-1.99-0.25-1.59-1.46-1.88c-0.9-0.21-1.74-0.49-2.58-0.71c-1.48-0.38-3.85-1.14-5.55-0.74c0.22,0.19,0.06,0.06,0.33,0.24
		l2.14,1.58c1.74,1.4,4.88,5.13,5.39,7.34c-0.9-0.07-1.8-0.93-2.72-1.14c0.56,0.83,1.88,1.7,2.14,2.86
		c-0.56-0.13-1.57-0.42-2.14-0.43v1c-1.01,0-2.32-0.56-3.15-1c0,0.62,0.14,0.84-0.28,0.94l-6.27-1.12
		c-0.39-0.13-0.37-0.21-0.89-0.25c0.46,0.68,0.82,1.07,1.24,1.91c1.05,2.09,1.69,4.62,2.03,6.99c0.88,6.2,0.92,7.16,2.55,12.77
		c1.6,5.54,3.33,10.27,5.57,15.61c1.95,4.64,4.27,13.61,5.56,18.77c0.52,2.08,4.68,17.55,5.81,18.38c0.05-0.58,0.66-1.83,0.9-2.39
		c2.45-5.66,5.94-15.04,7.95-21.09c1.1-3.3,2.12-6.54,2.96-9.91c0.24-0.93,0.42-1.68,0.66-2.63c0.16-0.66,0.53-1.82,0.55-2.6
		l-4.01,7.01v-8.58c-0.66,0.18-1.35,1.13-1.76,1.67c-2.89,3.88-1.28,6.47-2.54,5.81c-0.52-0.28-0.16-0.55-1-0.62v3.29
		c-1.02-0.02-0.35-0.22-1.15-0.43c-0.34,0.23-0.4,0.43-0.68,0.75l-2,2.01c-0.42,0.43-2.51,2.44-2.9,2.54
		c0.54-0.8,0.87-1.46,1.09-2.64c0.42-2.25-0.37-7.37,3.21-7.67c0-5.86,2.56-8.02,3.43-10.95l0.27-0.37
		c0.44-0.77,1.05-2.84,1.25-3.66l-2.77,2.54c-0.67,0.4-1.69,1.72-1.89,2.58c-0.58-0.16-0.64-0.49-0.84-1.02
		c-0.55-1.41-0.1-0.91-0.59-1.27c-0.22,0.96-1.06,1.9-1.29,2.86h-0.29c-0.02-0.71-0.27-1-0.29-1.72h-0.28
		c0,1.33-0.22,2.03-1.16,2.42c-2.36,0.96-3.96,3.3-4.57,5.88c-0.4-0.29-0.58-1.16-0.72-1.71c-0.46-1.79-0.32-3.43,0.27-5.18
		c0.14-0.41,0.21-0.43,0.3-0.84c-0.85,0.07-0.29,0.32-0.86,0.24c-0.52-0.07,0.15-1.05,0.67-2.14c0.92-1.9,1.75-4.34,3.23-5.93
		c0.91-0.98,1.18-1.19,2.21-1.81c0.3-0.18,0.12-0.05,0.33-0.23c-1.46,0-4.12,0.7-5.01,0.72c0-0.05,0.04-0.36,0.04-0.36
		c0.01-0.24,0.04-0.03-0.04-0.21c-0.6,0.4-1.39,1.48-1.58,2.29c-0.45-0.33-0.29-0.52-0.29-1.29c-1.1,0.74-2.05,3-3.15,3.29
		c0-0.67,0.09-0.6,0.13-1.15c0.12-1.56-0.08-1.1,0.41-3.17c0.59-2.5,1.56-4.5,3.43-6.16c0.73-0.65,1.97-1.44,3.04-1.68
		c1.39-0.26,2.04-0.44,3.57-0.39c1.27,0.03,2.28,0.41,3.38,0.49c-2.04-1.57-4.24-1.82-7.23-1.53l-5.32,0.98
		c-2.91,0.42-3.65,0.8-2.65-2.22c0.94-2.83,3.52-5.04,6.25-6.11c2.69-0.74,5.72-1.05,7.62,1.59c0.12,0.16,0.22,0.32,0.29,0.42
		c0.26,0.37,0.11,0.23,0.4,0.44c0.48-0.46,0.36-0.72,0.86-1.02c0.03,0.02,0.07,0.03,0.08,0.07c0.01,0.05,0.07,0.06,0.08,0.07
		l2.07,3.09c1.64-0.06,0.83-0.76,2.58-0.19c-0.71-1.47-0.9-2.93-1.7-4.54c-0.28-0.56-0.61-0.85-0.83-1.33
		c0.81-0.45,1.47-0.84,2.63-0.99c-1.28-2.25-3.53-5.24-4.24-7.65c6.84,0,9.48,5.77,10.66,6.6c0.2,0.55,1.15,1.95,1.54,2.62
		c0.49,0.84,0.88,1.88,1.42,2.72c1.28-0.06,1.13-1.53,2.44-1.55c0.24,0.74-0.22,0.93,0.22,1.47c0.92,0.65,1.2-1.4,2.61-2.42
		c-0.34,1.52-0.31,1.5,0.03,2.97c0.07-0.08,0.09-0.11,0.19-0.26c0.06-0.09,0.11-0.18,0.16-0.28L1074.93,428.78z M1074.93,537.22
		v-66.52c-0.8,0.47-1.54,0.87-1.9,0.95c0.29-0.43,0.65-0.72,1.04-1.11c0.43-0.43,0.57-0.59,0.86-1.01v-9.17
		c-0.37-0.84-0.8-1.8-1.04-2c-0.35,0.48-2.48,5.23-2.59,5.85c-0.3,0.38-0.65,1.4-0.9,1.95l-2.44,5.71
		c-0.55,1.37-1.03,2.49-1.57,3.86c-0.29,0.72-0.54,1.25-0.8,1.92c-2.22,5.58-4.74,12.16-6.64,17.84c-3.1,9.28-4.18,19.08-2.85,28.86
		l1.47,9.4c0.99,0,2.65,0.32,3.64,0.51C1065.59,535.1,1070.44,536.15,1074.93,537.22z M1001.77,539.38h21.4l-1.21-0.03
		c-3.46-0.11-7.11,0-10.59,0c-3.21,0-6.29-0.13-9.59-0.14V539.38z M1065.88,461.07l0.08-0.31L1065.88,461.07z"/>
	<path class="st0" d="M615.13,555.33c19.96-2.68,35.65-3.78,55.16-7.78c81.59-16.71,115.92-55.16,238.87-44.46
		c18.92,1.65,72.61,10.39,82.49,17.35c-2.9-0.29-29.71-5.68-40.66-7.14c-52.06-6.96-92.81-4.82-145.97,8.36
		c-29.71,7.36-55.69,17.73-86.33,24.78c-17.35,3.99-33.41,6.19-52.23,7.82C655.2,555.24,623.85,556.73,615.13,555.33"/>
	<path class="st1" d="M874.94,441.93v3.3h0.85l0.67-1.19c0.2-0.35,0.41-0.79,0.56-1.18h0.01c-0.04,0.43-0.05,0.88-0.05,1.39v0.97
		h0.69v-3.3h-0.76l-0.71,1.3c-0.19,0.35-0.41,0.79-0.59,1.17h-0.02c0.03-0.44,0.04-0.96,0.04-1.49v-0.98H874.94z M870.25,441.93
		v1.08c0,0.71,0.43,1.03,1.03,1.03c0.27,0,0.5-0.05,0.74-0.17h0.01v1.36h0.74v-3.3h-0.74v1.39c-0.14,0.07-0.32,0.12-0.48,0.12
		c-0.35,0-0.55-0.18-0.55-0.56v-0.96H870.25z M866.72,442.47c0.51,0,0.8,0.51,0.8,1.1c0,0.64-0.29,1.12-0.79,1.12
		c-0.5,0-0.8-0.46-0.8-1.1C865.92,442.95,866.22,442.47,866.72,442.47z M866.74,441.88c-0.97,0-1.6,0.74-1.6,1.73
		c0,0.94,0.57,1.68,1.55,1.68c0.97,0,1.62-0.66,1.62-1.74C868.31,442.63,867.76,441.88,866.74,441.88z M863.3,444.56
		c-0.15,0.06-0.4,0.11-0.62,0.11c-0.67,0-1.06-0.42-1.06-1.07c0-0.74,0.46-1.09,1.05-1.09c0.26,0,0.48,0.06,0.63,0.12l0.15-0.59
		c-0.13-0.07-0.43-0.14-0.81-0.14c-1,0-1.8,0.62-1.8,1.75c0,0.94,0.59,1.65,1.73,1.65c0.4,0,0.71-0.07,0.85-0.14L863.3,444.56z
		 M976.35,479.31h-9.13v12.47h9.13V479.31z M901,453.25L901,453.25c-4.95,0-9,4.05-9,9v29.54h17.99v-29.54
		C909.99,457.3,905.94,453.25,901,453.25z M927.07,458.41L927.07,458.41c-4.29,0-7.81,3.51-7.81,7.8v25.58h15.6v-25.58
		C934.87,461.91,931.36,458.41,927.07,458.41z M951.05,464.01L951.05,464.01c-3.8,0-6.9,3.11-6.9,6.9v20.87h13.8v-20.87
		C957.95,467.12,954.84,464.01,951.05,464.01z M765.11,479.31h9.13v12.47h-9.13V479.31z M870.73,446.78L870.73,446.78
		c6.6,0,11.99,5.4,11.99,11.99v33.01h-23.99v-33.01C858.74,452.18,864.13,446.78,870.73,446.78z M840.46,453.25L840.46,453.25
		c4.95,0,8.99,4.05,8.99,9v29.54h-17.99v-29.54C831.47,457.3,835.51,453.25,840.46,453.25z M814.39,458.41L814.39,458.41
		c4.29,0,7.8,3.51,7.8,7.8v25.58h-15.6v-25.58C806.59,461.91,810.1,458.41,814.39,458.41z M858.83,380.79h5.2v22.19h-5.2V380.79z
		 M867.22,380.79h5.2v22.19h-5.2V380.79z M875.6,380.79h5.2v22.19h-5.2V380.79z M888.72,413.91c0.88,0,1.59,0.72,1.59,1.59
		c0,0.88-0.71,1.59-1.59,1.59c-0.88,0-1.59-0.72-1.59-1.59C887.13,414.63,887.85,413.91,888.72,413.91z M884.79,419.43h7.87v10.19
		h-7.87V419.43z M869.98,413.91c0.88,0,1.59,0.72,1.59,1.59c0,0.88-0.71,1.59-1.59,1.59c-0.88,0-1.59-0.72-1.59-1.59
		C868.39,414.63,869.1,413.91,869.98,413.91z M866.05,419.43h7.87v10.19h-7.87V419.43z M851.23,413.91c0.88,0,1.59,0.72,1.59,1.59
		c0,0.88-0.71,1.59-1.59,1.59c-0.88,0-1.59-0.72-1.59-1.59C849.64,414.63,850.36,413.91,851.23,413.91z M847.3,419.43h7.87v10.19
		h-7.87V419.43z M870.44,250.79c0.78,0.26,1.35,1,1.35,1.88c0,0.81-0.48,1.5-1.18,1.81l4.93,104.23v11.36h6.53l0.7-3.93
		c2.31-12.88,2.27-4.06,3.57,3.93h0.35v8.92l-2.75,2.74v21.24l10.92,5.52l2.65,21.12h20.17l-2.23,5.03v7.7l69.53,16.66v4.99
		l-115.17-25.23l-115.17,25.23v-4.99l69.53-16.66v-7.7l-2.23-5.03h20.17l2.65-21.12l10.92-5.52v-21.24l-2.75-2.74v-8.92h0.37
		l0.71-3.93c2.31-12.88,2.27-4.06,3.57,3.93h6.5v-11.36l4.93-104.23c-0.69-0.31-1.18-1-1.18-1.81c0-0.87,0.57-1.61,1.35-1.88
		l0.6-12.76l-3.36,1.01l-0.08-3.54l-2.02-2.91l3.34-1.17l2.14-2.82l2.15,2.82l3.34,1.17l-2.01,2.91l-0.08,3.54l-3.37-1.01
		L870.44,250.79z M770.01,465.35c1.6,0,2.9,1.3,2.9,2.9c0,1.6-1.3,2.9-2.9,2.9c-1.6,0-2.9-1.3-2.9-2.9
		C767.11,466.65,768.41,465.35,770.01,465.35z M971.61,465.35c1.6,0,2.9,1.3,2.9,2.9c0,1.6-1.3,2.9-2.9,2.9c-1.6,0-2.9-1.3-2.9-2.9
		C968.7,466.65,970,465.35,971.61,465.35z M790.41,464.01L790.41,464.01c3.8,0,6.9,3.11,6.9,6.9v20.87h-13.8v-20.87
		C783.51,467.12,786.62,464.01,790.41,464.01z"/>
</g>
</svg>
