<svg width="48" height="48" viewBox="0 0 48 48" fill="none" xmlns="http://www.w3.org/2000/svg">
<path d="M47 24C47 36.7026 36.7026 47 24 47C11.2975 47 1 36.7026 1 24C1 11.2975 11.2975 1 24 1C36.7026 1 47 11.2975 47 24Z" fill="#777777"/>
<path d="M27.62 5.72001C27.96 5.12001 27.62 4.32001 26.92 4.24001C21.68 3.50001 16.32 4.80001 12.04 7.96001C11.66 8.26001 11.54 8.82001 11.8 9.26001L17.82 19.7C18.2 20.36 19.16 20.36 19.56 19.7L27.62 5.72001V5.72001ZM42.6 16.66C40.64 11.72 36.76 7.74001 31.9 5.66001C31.44 5.46001 30.9 5.66001 30.64 6.10001L24.62 16.52C24.24 17.16 24.72 18 25.5 18H41.66C42.36 18 42.86 17.3 42.6 16.66V16.66ZM42.74 20H30.34C29.58 20 29.08 20.84 29.48 21.5L38 36.28C38.34 36.88 39.2 36.98 39.64 36.44C43.12 32.08 44.6 26.38 43.74 20.86C43.68 20.36 43.24 20 42.74 20ZM8.36001 11.58C4.90001 15.96 3.40001 21.62 4.26001 27.16C4.32001 27.64 4.76001 28 5.26001 28H17.66C18.42 28 18.92 27.16 18.52 26.5L10 11.74C9.64001 11.14 8.78001 11.04 8.36001 11.58ZM5.40001 31.34C7.36001 36.28 11.24 40.26 16.1 42.34C16.56 42.54 17.1 42.34 17.36 41.9L23.38 31.48C23.76 30.82 23.28 29.98 22.52 29.98H6.34001C5.64001 30 5.14001 30.7 5.40001 31.34V31.34ZM21.06 43.78C26.3 44.52 31.66 43.22 35.94 40.06C36.34 39.76 36.46 39.18 36.2 38.74L30.18 28.3C29.8 27.64 28.84 27.64 28.44 28.3L20.36 42.28C20.02 42.88 20.38 43.68 21.06 43.78V43.78Z" fill="white"/>
</svg>
