<svg width="48" height="48" viewBox="0 0 48 48" fill="none" xmlns="http://www.w3.org/2000/svg">
<path d="M24 16C19.58 16 16 19.58 16 24C16 28.42 19.58 32 24 32C28.42 32 32 28.42 32 24C32 19.58 28.42 16 24 16ZM8 30C6.9 30 6 30.9 6 32V38C6 40.2 7.8 42 10 42H16C17.1 42 18 41.1 18 40C18 38.9 17.1 38 16 38H12C10.9 38 10 37.1 10 36V32C10 30.9 9.1 30 8 30ZM10 12C10 10.9 10.9 10 12 10H16C17.1 10 18 9.1 18 8C18 6.9 17.1 6 16 6H10C7.8 6 6 7.8 6 10V16C6 17.1 6.9 18 8 18C9.1 18 10 17.1 10 16V12ZM38 6H32C30.9 6 30 6.9 30 8C30 9.1 30.9 10 32 10H36C37.1 10 38 10.9 38 12V16C38 17.1 38.9 18 40 18C41.1 18 42 17.1 42 16V10C42 7.8 40.2 6 38 6ZM38 36C38 37.1 37.1 38 36 38H32C30.9 38 30 38.9 30 40C30 41.1 30.9 42 32 42H38C40.2 42 42 40.2 42 38V32C42 30.9 41.1 30 40 30C38.9 30 38 30.9 38 32V36Z" fill="white"/>
<circle cx="24" cy="24" r="8" fill="#DB2728"/>
</svg>
