<svg width="48" height="48" viewBox="0 0 48 48" fill="none" xmlns="http://www.w3.org/2000/svg">
<path d="M5.42001 7.12C4.64001 7.9 4.64001 9.16 5.42001 9.94L10.36 14.88C10.14 15.9 10 16.94 10 18C10 26.34 18.84 37.84 22.46 42.22C23.26 43.18 24.72 43.18 25.52 42.22C26.82 40.66 28.76 38.2 30.74 35.3L36.04 40.6C36.82 41.38 38.08 41.38 38.86 40.6C39.64 39.82 39.64 38.56 38.86 37.78L8.24001 7.12C7.46001 6.34 6.20001 6.34 5.42001 7.12ZM24 4C20.32 4 17 5.42 14.5 7.72L20.88 14.1C21.74 13.42 22.82 13 24 13C26.76 13 29 15.24 29 18C29 19.18 28.58 20.26 27.88 21.12L34.98 28.22C36.74 24.72 38 21.14 38 18C38 10.26 31.74 4 24 4Z" fill="#777777"/>
</svg>
